# xmcd
#
# Track frame offsets:
#	150
#	15507
#	28474
#	43638
#	58083
#	70282
#	83030
#	95268
#	107405
#	119622
#	132703
#	148212
#	157884
#	170294
#
# Disc length: 2556 seconds
# Revision: 0
# Processed by: cddbd v1.5.2PL0 Copyright (c) Steve Scherf et al.
# Submitted via: dBpowerAMP V12.0
#
DISCID=c109fa0e
DTITLE=Various Artist - Last Chance
DYEAR=2011
DGENRE=Country
TTITLE0=Eric Carson with Brandon Rickman and Jeff Parker - I Feel the Blues Movin' In
TTITLE1=Eric Carson - Methodist Preacher
TTITLE2=Eric Carson with Marshall Wilborn - You Can Take Your Time
TTITLE3=Eric Carson - Sullivan County
TTITLE4=Eric Carson - Goodbye Liza Jane
TTITLE5=Eric Carson with Gold Heart - Sake of Love
TTITLE6=Eric Carson - Liberty Off the Corn Liquor Still - Devil in the Wood Pile 
TTITLE7=Eric Carson - Shenandoah Breakdown
TTITLE8=Eric Carson with Brandon Rickman and Jeff Parker - One Tear
TTITLE9=Eric Carson - Runaround
TTITLE10=Eric Carson with Gold Heart - Blue
TTITLE11=Eric Carson - Last Chance
TTITLE12=Eric Carson with Brandon Rickman and Jeff Parker - Redwood Hill
TTITLE13=Eric Carson - Squirrel Hunter
EXTD=
EXTT0=
EXTT1=
EXTT2=
EXTT3=
EXTT4=
EXTT5=
EXTT6=
EXTT7=
EXTT8=
EXTT9=
EXTT10=
EXTT11=
EXTT12=
EXTT13=
PLAYORDER=
